<svg width="646" height="117" viewBox="0 0 646 117" fill="none" xmlns="http://www.w3.org/2000/svg">
  <path
    d="M194.102 58.8182C194.102 64.6477 192.969 69.5653 190.702 73.571C188.435 77.5597 185.375 80.5852 181.523 82.6477C177.67 84.6932 173.375 85.7159 168.636 85.7159C163.864 85.7159 159.551 84.6847 155.699 82.6222C151.864 80.5426 148.812 77.5085 146.545 73.5199C144.295 69.5142 143.17 64.6136 143.17 58.8182C143.17 52.9886 144.295 48.0795 146.545 44.0909C148.812 40.0852 151.864 37.0597 155.699 35.0142C159.551 32.9517 163.864 31.9205 168.636 31.9205C173.375 31.9205 177.67 32.9517 181.523 35.0142C185.375 37.0597 188.435 40.0852 190.702 44.0909C192.969 48.0795 194.102 52.9886 194.102 58.8182ZM179.477 58.8182C179.477 55.6818 179.06 53.0398 178.224 50.892C177.406 48.7273 176.188 47.0909 174.568 45.983C172.966 44.858 170.989 44.2955 168.636 44.2955C166.284 44.2955 164.298 44.858 162.679 45.983C161.077 47.0909 159.858 48.7273 159.023 50.892C158.205 53.0398 157.795 55.6818 157.795 58.8182C157.795 61.9545 158.205 64.6051 159.023 66.7699C159.858 68.9176 161.077 70.554 162.679 71.679C164.298 72.7869 166.284 73.3409 168.636 73.3409C170.989 73.3409 172.966 72.7869 174.568 71.679C176.188 70.554 177.406 68.9176 178.224 66.7699C179.06 64.6051 179.477 61.9545 179.477 58.8182ZM213.055 45.7273L218.782 57.8977L224.816 45.7273H238.827L228.293 65.3636L239.339 85H225.43L218.782 72.5227L212.339 85H198.225L209.373 65.3636L198.941 45.7273H213.055ZM261.43 85.7159C257.168 85.7159 253.521 84.8722 250.487 83.1847C247.452 81.4801 245.126 79.1108 243.506 76.0767C241.887 73.0256 241.077 69.4886 241.077 65.4659C241.077 61.4432 241.887 57.9148 243.506 54.8807C245.126 51.8295 247.452 49.4602 250.487 47.7727C253.521 46.0682 257.168 45.2159 261.43 45.2159C265.282 45.2159 268.614 45.9148 271.427 47.3125C274.256 48.6932 276.447 50.6534 277.998 53.1932C279.549 55.7159 280.333 58.6818 280.35 62.0909H267.259C267.072 60.0284 266.475 58.4602 265.469 57.3864C264.481 56.2955 263.202 55.75 261.634 55.75C260.407 55.75 259.333 56.108 258.413 56.8239C257.492 57.5227 256.776 58.5881 256.265 60.0199C255.754 61.4347 255.498 63.2159 255.498 65.3636C255.498 67.5114 255.754 69.3011 256.265 70.733C256.776 72.1477 257.492 73.2131 258.413 73.929C259.333 74.6278 260.407 74.9773 261.634 74.9773C262.674 74.9773 263.594 74.7386 264.396 74.2614C265.197 73.767 265.844 73.0511 266.339 72.1136C266.85 71.1591 267.157 70 267.259 68.6364H280.35C280.299 72.0966 279.506 75.1136 277.972 77.6875C276.438 80.2443 274.265 82.2216 271.452 83.6193C268.657 85.017 265.316 85.7159 261.43 85.7159ZM314.528 32.6364V85H300.312V32.6364H314.528ZM335.584 62.9091V85H321.47V45.7273H334.868V53.1932H335.277C336.129 50.7045 337.629 48.7528 339.777 47.3381C341.942 45.9233 344.464 45.2159 347.345 45.2159C350.124 45.2159 352.536 45.8551 354.581 47.1335C356.643 48.3949 358.237 50.1335 359.362 52.3494C360.504 54.5653 361.067 57.0966 361.05 59.9432V85H346.936V62.9091C346.953 60.9659 346.459 59.4403 345.453 58.3324C344.464 57.2244 343.084 56.6705 341.311 56.6705C340.152 56.6705 339.138 56.9261 338.268 57.4375C337.416 57.9318 336.76 58.6477 336.3 59.5852C335.839 60.5057 335.601 61.6136 335.584 62.9091ZM403.915 58.5114H390.926C390.858 57.7102 390.577 57.0199 390.082 56.4403C389.588 55.8608 388.949 55.4176 388.165 55.1108C387.398 54.7869 386.545 54.625 385.608 54.625C384.398 54.625 383.358 54.8466 382.489 55.2898C381.619 55.733 381.193 56.3636 381.21 57.1818C381.193 57.7614 381.44 58.2983 381.952 58.7926C382.48 59.2869 383.494 59.6705 384.994 59.9432L392.972 61.375C396.994 62.108 399.986 63.3437 401.946 65.0824C403.923 66.804 404.92 69.1136 404.938 72.0114C404.92 74.8068 404.085 77.2358 402.432 79.2983C400.795 81.3437 398.554 82.929 395.707 84.054C392.878 85.1619 389.648 85.7159 386.017 85.7159C380.017 85.7159 375.321 84.4886 371.929 82.0341C368.554 79.5795 366.67 76.3409 366.278 72.3182H380.29C380.477 73.5625 381.091 74.5256 382.131 75.2074C383.188 75.8722 384.517 76.2045 386.119 76.2045C387.415 76.2045 388.48 75.983 389.315 75.5398C390.168 75.0966 390.602 74.4659 390.619 73.6477C390.602 72.8977 390.227 72.3011 389.494 71.858C388.778 71.4148 387.653 71.0568 386.119 70.7841L379.165 69.5568C375.159 68.858 372.159 67.5284 370.165 65.5682C368.17 63.608 367.182 61.0852 367.199 58C367.182 55.2727 367.898 52.9631 369.347 51.071C370.813 49.1619 372.901 47.7131 375.611 46.7244C378.338 45.7188 381.568 45.2159 385.301 45.2159C390.977 45.2159 395.452 46.392 398.724 48.7443C402.014 51.0966 403.744 54.3523 403.915 58.5114ZM410.345 99.7273V45.7273H424.357V52.5795H424.663C425.175 51.25 425.925 50.0312 426.913 48.9233C427.902 47.7983 429.129 46.9034 430.595 46.2386C432.061 45.5568 433.766 45.2159 435.709 45.2159C438.3 45.2159 440.763 45.9062 443.098 47.2869C445.45 48.6676 447.359 50.8409 448.825 53.8068C450.308 56.7727 451.05 60.625 451.05 65.3636C451.05 69.8977 450.342 73.6562 448.928 76.6392C447.53 79.6222 445.655 81.8466 443.303 83.3125C440.967 84.7784 438.402 85.5114 435.607 85.5114C433.766 85.5114 432.121 85.2131 430.672 84.6165C429.24 84.0028 428.013 83.1761 426.99 82.1364C425.984 81.0795 425.209 79.8864 424.663 78.5568H424.459V99.7273H410.345ZM424.152 65.3636C424.152 67.2727 424.399 68.9261 424.893 70.3239C425.405 71.7045 426.121 72.7784 427.041 73.5455C427.979 74.2955 429.095 74.6705 430.391 74.6705C431.686 74.6705 432.786 74.304 433.689 73.571C434.609 72.821 435.308 71.7557 435.786 70.375C436.28 68.9773 436.527 67.3068 436.527 65.3636C436.527 63.4205 436.28 61.7585 435.786 60.3778C435.308 58.9801 434.609 57.9148 433.689 57.1818C432.786 56.4318 431.686 56.0568 430.391 56.0568C429.095 56.0568 427.979 56.4318 427.041 57.1818C426.121 57.9148 425.405 58.9801 424.893 60.3778C424.399 61.7585 424.152 63.4205 424.152 65.3636ZM475.781 85.7159C471.587 85.7159 467.974 84.9148 464.94 83.3125C461.923 81.6932 459.596 79.375 457.96 76.358C456.34 73.3239 455.531 69.6932 455.531 65.4659C455.531 61.4091 456.349 57.8636 457.985 54.8295C459.621 51.7955 461.931 49.4347 464.914 47.7472C467.897 46.0597 471.417 45.2159 475.474 45.2159C478.44 45.2159 481.124 45.6761 483.528 46.5966C485.931 47.517 487.985 48.8551 489.69 50.6108C491.394 52.3494 492.707 54.4631 493.627 56.9517C494.548 59.4403 495.008 62.2443 495.008 65.3636V68.6364H459.928V60.8636H482.019C482.002 59.7386 481.712 58.75 481.15 57.8977C480.604 57.0284 479.863 56.3551 478.925 55.8778C478.005 55.3835 476.957 55.1364 475.781 55.1364C474.638 55.1364 473.59 55.3835 472.636 55.8778C471.681 56.3551 470.914 57.0199 470.335 57.8722C469.772 58.7244 469.474 59.7216 469.44 60.8636V69.25C469.44 70.5114 469.704 71.6364 470.232 72.625C470.761 73.6136 471.519 74.3892 472.508 74.9517C473.496 75.5142 474.69 75.7955 476.087 75.7955C477.059 75.7955 477.945 75.6591 478.746 75.3864C479.565 75.1136 480.263 74.7216 480.843 74.2102C481.423 73.6818 481.849 73.0511 482.121 72.3182H495.008C494.565 75.0455 493.516 77.4148 491.863 79.4261C490.21 81.4205 488.019 82.9716 485.292 84.0795C482.582 85.1705 479.411 85.7159 475.781 85.7159ZM519.688 85.7159C515.426 85.7159 511.778 84.8722 508.744 83.1847C505.71 81.4801 503.384 79.1108 501.764 76.0767C500.145 73.0256 499.335 69.4886 499.335 65.4659C499.335 61.4432 500.145 57.9148 501.764 54.8807C503.384 51.8295 505.71 49.4602 508.744 47.7727C511.778 46.0682 515.426 45.2159 519.688 45.2159C523.54 45.2159 526.872 45.9148 529.685 47.3125C532.514 48.6932 534.705 50.6534 536.256 53.1932C537.807 55.7159 538.591 58.6818 538.608 62.0909H525.517C525.33 60.0284 524.733 58.4602 523.727 57.3864C522.739 56.2955 521.46 55.75 519.892 55.75C518.665 55.75 517.591 56.108 516.67 56.8239C515.75 57.5227 515.034 58.5881 514.523 60.0199C514.011 61.4347 513.756 63.2159 513.756 65.3636C513.756 67.5114 514.011 69.3011 514.523 70.733C515.034 72.1477 515.75 73.2131 516.67 73.929C517.591 74.6278 518.665 74.9773 519.892 74.9773C520.932 74.9773 521.852 74.7386 522.653 74.2614C523.455 73.767 524.102 73.0511 524.597 72.1136C525.108 71.1591 525.415 70 525.517 68.6364H538.608C538.557 72.0966 537.764 75.1136 536.23 77.6875C534.696 80.2443 532.523 82.2216 529.71 83.6193C526.915 85.017 523.574 85.7159 519.688 85.7159ZM567.852 45.7273V55.9545H541.977V45.7273H567.852ZM546.988 36.3182H561.102V72.3693C561.102 72.9148 561.195 73.375 561.383 73.75C561.57 74.108 561.86 74.3807 562.252 74.5682C562.644 74.7386 563.147 74.8239 563.761 74.8239C564.187 74.8239 564.681 74.7727 565.244 74.6705C565.823 74.5682 566.249 74.483 566.522 74.4148L568.567 84.3352C567.937 84.5227 567.033 84.7528 565.857 85.0256C564.698 85.2983 563.317 85.4773 561.715 85.5625C558.477 85.733 555.758 85.4006 553.559 84.5653C551.36 83.7131 549.707 82.375 548.599 80.5511C547.491 78.7273 546.954 76.4432 546.988 73.6989V36.3182ZM592.109 85.7159C587.848 85.7159 584.2 84.8722 581.166 83.1847C578.132 81.4801 575.805 79.1108 574.186 76.0767C572.567 73.0256 571.757 69.4886 571.757 65.4659C571.757 61.4432 572.567 57.9148 574.186 54.8807C575.805 51.8295 578.132 49.4602 581.166 47.7727C584.2 46.0682 587.848 45.2159 592.109 45.2159C596.371 45.2159 600.018 46.0682 603.053 47.7727C606.087 49.4602 608.413 51.8295 610.033 54.8807C611.652 57.9148 612.462 61.4432 612.462 65.4659C612.462 69.4886 611.652 73.0256 610.033 76.0767C608.413 79.1108 606.087 81.4801 603.053 83.1847C600.018 84.8722 596.371 85.7159 592.109 85.7159ZM592.212 75.2841C593.405 75.2841 594.436 74.8835 595.305 74.0824C596.175 73.2812 596.848 72.1392 597.325 70.6562C597.803 69.1733 598.041 67.4091 598.041 65.3636C598.041 63.3011 597.803 61.5369 597.325 60.071C596.848 58.5881 596.175 57.446 595.305 56.6449C594.436 55.8437 593.405 55.4432 592.212 55.4432C590.95 55.4432 589.868 55.8437 588.964 56.6449C588.061 57.446 587.371 58.5881 586.893 60.071C586.416 61.5369 586.178 63.3011 586.178 65.3636C586.178 67.4091 586.416 69.1733 586.893 70.6562C587.371 72.1392 588.061 73.2812 588.964 74.0824C589.868 74.8835 590.95 75.2841 592.212 75.2841ZM618.189 85V45.7273H631.893V53.1932H632.303C633.018 50.4318 634.152 48.4119 635.703 47.1335C637.271 45.8551 639.104 45.2159 641.2 45.2159C641.814 45.2159 642.419 45.267 643.016 45.3693C643.629 45.4545 644.217 45.5824 644.78 45.7528V57.7955C644.081 57.5568 643.22 57.3778 642.197 57.2585C641.175 57.1392 640.297 57.0795 639.564 57.0795C638.183 57.0795 636.939 57.3949 635.831 58.0256C634.74 58.6392 633.879 59.5085 633.249 60.6335C632.618 61.7415 632.303 63.0455 632.303 64.5455V85H618.189Z"
    fill="white" />
  <rect width="117" height="117" rx="8" fill="black" />
  <path
    d="M66.9852 40.8508C66.9849 41.1819 67.0499 41.5098 67.1764 41.8158C67.303 42.1218 67.4886 42.3998 67.7227 42.634C67.9568 42.8682 68.2347 43.0539 68.5407 43.1806C68.8466 43.3073 69.1745 43.3724 69.5056 43.3723H79.0732C80.1969 43.3723 80.7587 44.7322 79.9639 45.5237L67.722 57.7655C67.4874 57.9995 67.3013 58.2775 67.1743 58.5836C67.0473 58.8896 66.9819 59.2177 66.9819 59.5491V63.7348C66.9819 65.476 68.7097 66.6844 70.2369 65.8528C71.7872 65.0102 73.2341 63.9901 74.5486 62.813C75.0669 62.3492 75.864 62.3448 76.3567 62.8397L85.2733 71.7552C85.3914 71.8706 85.485 72.0087 85.5484 72.1611C85.6118 72.3135 85.6438 72.4772 85.6425 72.6423C85.6411 72.8074 85.6064 72.9705 85.5405 73.1219C85.4746 73.2733 85.3788 73.4098 85.2588 73.5232C78.2577 80.0901 69.0152 83.7392 59.4163 83.7262C49.4239 83.7262 40.3356 79.8503 33.5726 73.5232C33.4527 73.4097 33.357 73.2731 33.2911 73.1217C33.2253 72.9703 33.1907 72.8072 33.1895 72.6421C33.1882 72.477 33.2203 72.3133 33.2839 72.1609C33.3474 72.0086 33.4411 71.8706 33.5592 71.7552L42.4748 62.8397C42.9675 62.347 43.7645 62.3492 44.2828 62.813C45.5976 63.9902 47.045 65.0103 48.5957 65.8528C50.1251 66.6844 51.8495 65.476 51.8495 63.7348V59.5502C51.8495 58.8802 51.582 58.2382 51.1094 57.7655L38.8675 45.5237C38.0727 44.7289 38.6345 43.3723 39.7593 43.3723H49.3258C49.657 43.3725 49.985 43.3075 50.2911 43.1809C50.5972 43.0543 50.8752 42.8686 51.1094 42.6344C51.3436 42.4002 51.5294 42.1221 51.656 41.816C51.7826 41.51 51.8476 41.182 51.8473 40.8508V34.5448C51.8473 33.8492 52.4114 33.2852 53.1069 33.2852H65.7178C66.0518 33.2852 66.3722 33.4179 66.6085 33.6541C66.8447 33.8903 66.9774 34.2107 66.9774 34.5448V40.8508H66.9852Z"
    fill="#00F7F1" />
  <mask id="mask0_216_450" style="mask-type:alpha" maskUnits="userSpaceOnUse" x="33" y="33"
    width="53" height="51">
    <path
      d="M66.9813 40.8418C66.981 41.173 67.046 41.5009 67.1725 41.8069C67.2991 42.1128 67.4847 42.3909 67.7188 42.6251C67.9529 42.8592 68.2308 43.045 68.5367 43.1717C68.8427 43.2983 69.1706 43.3635 69.5017 43.3633H79.0693C80.193 43.3633 80.7548 44.7233 79.96 45.5147L67.7181 57.7566C67.4835 57.9906 67.2974 58.2686 67.1704 58.5746C67.0434 58.8807 66.978 59.2088 66.978 59.5401V63.7259C66.978 65.4671 68.7058 66.6755 70.2329 65.8439C71.7833 65.0013 73.2302 63.9812 74.5447 62.804C75.063 62.3403 75.8601 62.3359 76.3528 62.8308L85.2694 71.7463C85.3875 71.8617 85.4811 71.9998 85.5445 72.1522C85.6079 72.3046 85.6399 72.4683 85.6386 72.6334C85.6372 72.7985 85.6025 72.9616 85.5366 73.113C85.4707 73.2643 85.3749 73.4008 85.2549 73.5143C78.2538 80.0812 69.0113 83.7303 59.4124 83.7173C49.42 83.7173 40.3317 79.8414 33.5687 73.5143C33.4488 73.4008 33.3531 73.2642 33.2872 73.1128C33.2214 72.9614 33.1868 72.7982 33.1856 72.6331C33.1843 72.4681 33.2164 72.3044 33.28 72.152C33.3435 71.9996 33.4372 71.8616 33.5553 71.7463L42.4708 62.8308C42.9636 62.3381 43.7606 62.3403 44.2789 62.804C45.5937 63.9812 47.0411 65.0014 48.5918 65.8439C50.1212 66.6755 51.8456 65.4671 51.8456 63.7259V59.5413C51.8456 58.8713 51.5781 58.2292 51.1055 57.7566L38.8636 45.5147C38.0688 44.7199 38.6306 43.3633 39.7554 43.3633H49.3219C49.6531 43.3636 49.9811 43.2986 50.2872 43.172C50.5932 43.0454 50.8713 42.8597 51.1055 42.6255C51.3397 42.3913 51.5255 42.1132 51.6521 41.8071C51.7787 41.5011 51.8437 41.173 51.8434 40.8418V34.537C51.8434 33.8414 52.4075 33.2773 53.103 33.2773H65.7139C65.8794 33.2772 66.0433 33.3097 66.1963 33.3729C66.3492 33.4361 66.4882 33.5289 66.6053 33.6459C66.7224 33.7629 66.8153 33.9018 66.8786 34.0547C66.942 34.2076 66.9746 34.3715 66.9746 34.537V40.8429L66.9813 40.8418Z"
      fill="#D9D9D9" />
  </mask>
  <g mask="url(#mask0_216_450)">
    <g filter="url(#filter0_f_216_450)">
      <path
        d="M35.3031 84.5319C35.3031 81.6889 46.0338 79.3841 59.2707 79.3841C72.5076 79.3841 83.2383 81.6889 83.2383 84.5319C83.2383 87.3749 72.5076 89.6797 59.2707 89.6797C46.0338 89.6797 35.3031 87.3749 35.3031 84.5319Z"
        fill="#93FFFC" />
    </g>
    <g filter="url(#filter1_f_216_450)">
      <path
        d="M57.2702 91.1936C56.2208 88.5513 65.3431 82.4487 77.6454 77.563C89.9477 72.6772 100.771 70.8586 101.821 73.5009C102.87 76.1432 93.7477 82.2458 81.4455 87.1315C69.1432 92.0173 58.3195 93.8359 57.2702 91.1936Z"
        fill="#00FF79" />
    </g>
    <g filter="url(#filter2_f_216_450)">
      <path
        d="M61.265 91.1936C62.3143 88.5513 53.1921 82.4487 40.8898 77.563C28.5875 72.6772 17.7638 70.8586 16.7145 73.5009C15.6651 76.1432 24.7874 82.2458 37.0897 87.1315C49.392 92.0173 60.2156 93.8359 61.265 91.1936Z"
        fill="#0060FF" />
    </g>
    <g filter="url(#filter3_f_216_450)">
      <path
        d="M73.7038 60.53C72.081 58.9183 68.5611 59.8314 65.8419 62.5694C63.1227 65.3074 62.2338 68.8334 63.8566 70.4451C65.4794 72.0568 68.9993 71.1437 71.7185 68.4057C74.4377 65.6677 75.3266 62.1417 73.7038 60.53Z"
        fill="#93FFFC" />
    </g>
    <g filter="url(#filter4_f_216_450)">
      <path
        d="M75.8366 56.6784C74.2138 55.0668 70.6939 55.9798 67.9747 58.7178C65.2555 61.4558 64.3666 64.9819 65.9894 66.5935C67.6122 68.2052 71.1321 67.2921 73.8513 64.5542C76.5705 61.8162 77.4594 58.2901 75.8366 56.6784Z"
        fill="#0060FF" />
    </g>
    <g filter="url(#filter5_f_216_450)">
      <path
        d="M75.4108 35.3425C73.788 33.7308 70.2681 34.6439 67.5489 37.3819C64.8297 40.1199 63.9409 43.6459 65.5636 45.2576C67.1864 46.8693 70.7063 45.9562 73.4255 43.2182C76.1448 40.4802 77.0336 36.9542 75.4108 35.3425Z"
        fill="#93FFFC" />
    </g>
    <g filter="url(#filter6_f_216_450)">
      <path
        d="M76.696 33.6355C75.0732 32.0238 71.5533 32.9369 68.8341 35.6748C66.1149 38.4128 65.226 41.9389 66.8488 43.5506C68.4716 45.1622 71.9915 44.2492 74.7107 41.5112C77.4299 38.7732 78.3188 35.2471 76.696 33.6355Z"
        fill="#0060FF" />
    </g>
    <g filter="url(#filter7_f_216_450)">
      <path
        d="M45.5013 61.3855C47.1241 59.7738 50.644 60.6869 53.3632 63.4248C56.0824 66.1628 56.9713 69.6889 55.3485 71.3006C53.7257 72.9122 50.2058 71.9992 47.4866 69.2612C44.7674 66.5232 43.8785 62.9971 45.5013 61.3855Z"
        fill="#93FFFC" />
    </g>
    <g filter="url(#filter8_f_216_450)">
      <path
        d="M42.5091 57.5495C44.1319 55.9379 47.6518 56.8509 50.371 59.5889C53.0902 62.3269 53.9791 65.853 52.3563 67.4646C50.7335 69.0763 47.2136 68.1632 44.4944 65.4253C41.7752 62.6873 40.8863 59.1612 42.5091 57.5495Z"
        fill="#0060FF" />
    </g>
    <g filter="url(#filter9_f_216_450)">
      <path
        d="M42.5091 35.3425C44.1319 33.7308 47.6518 34.6439 50.371 37.3819C53.0902 40.1199 53.9791 43.6459 52.3563 45.2576C50.7335 46.8693 47.2136 45.9562 44.4944 43.2182C41.7752 40.4802 40.8863 36.9542 42.5091 35.3425Z"
        fill="#93FFFC" />
    </g>
    <g filter="url(#filter10_f_216_450)">
      <path
        d="M42.0814 32.7917C43.7042 31.18 47.2241 32.0931 49.9433 34.8311C52.6625 37.5691 53.5513 41.0952 51.9285 42.7068C50.3058 44.3185 46.7859 43.4054 44.0667 40.6674C41.3474 37.9295 40.4586 34.4034 42.0814 32.7917Z"
        fill="#0060FF" />
    </g>
    <g filter="url(#filter11_f_216_450)">
      <path
        d="M34.0158 43.4458C35.6386 41.8341 41.1564 44.7589 46.3402 49.9784C51.5239 55.198 54.4107 60.7358 52.7879 62.3475C51.1651 63.9591 45.6473 61.0343 40.4635 55.8148C35.2798 50.5952 32.393 45.0574 34.0158 43.4458Z"
        fill="#0060FF" />
    </g>
    <g filter="url(#filter12_f_216_450)">
      <path
        d="M86.0487 40.02C84.4259 38.4083 78.9081 41.3331 73.7243 46.5527C68.5405 51.7722 65.6537 57.31 67.2765 58.9217C68.8993 60.5333 74.4171 57.6086 79.6009 52.389C84.7847 47.1695 87.6715 41.6317 86.0487 40.02Z"
        fill="#00FF79" />
    </g>
    <g filter="url(#filter13_f_216_450)">
      <path
        d="M35.3031 86.6647C35.3031 83.8217 46.0338 81.5169 59.2707 81.5169C72.5076 81.5169 83.2383 83.8217 83.2383 86.6647C83.2383 89.5078 72.5076 91.8125 59.2707 91.8125C46.0338 91.8125 35.3031 89.5078 35.3031 86.6647Z"
        fill="#0060FF" />
    </g>
  </g>
  <path
    d="M24.6285 32.4219C14.3753 47.0983 14.3151 69.8486 24.6285 84.5785H31.5565C21.2453 69.8486 21.3055 47.0983 31.5565 32.4219H24.6285ZM94.2104 32.4219H87.2835C97.5367 47.0994 97.5969 69.8486 87.2835 84.5785H94.2115C104.523 69.8486 104.463 47.0994 94.2115 32.4219"
    fill="white" />
  <defs>
    <filter id="filter0_f_216_450" x="26.1107" y="70.1908" width="66.3195" height="28.6809"
      filterUnits="userSpaceOnUse" color-interpolation-filters="sRGB">
      <feFlood flood-opacity="0" result="BackgroundImageFix" />
      <feBlend mode="normal" in="SourceGraphic" in2="BackgroundImageFix" result="shape" />
      <feGaussianBlur stdDeviation="4.596" result="effect1_foregroundBlur_216_450" />
    </filter>
    <filter id="filter1_f_216_450" x="47.9955" y="63.0971" width="63.0988" height="38.5012"
      filterUnits="userSpaceOnUse" color-interpolation-filters="sRGB">
      <feFlood flood-opacity="0" result="BackgroundImageFix" />
      <feBlend mode="normal" in="SourceGraphic" in2="BackgroundImageFix" result="shape" />
      <feGaussianBlur stdDeviation="4.596" result="effect1_foregroundBlur_216_450" />
    </filter>
    <filter id="filter2_f_216_450" x="7.44081" y="63.0971" width="63.0988" height="38.5012"
      filterUnits="userSpaceOnUse" color-interpolation-filters="sRGB">
      <feFlood flood-opacity="0" result="BackgroundImageFix" />
      <feBlend mode="normal" in="SourceGraphic" in2="BackgroundImageFix" result="shape" />
      <feGaussianBlur stdDeviation="4.596" result="effect1_foregroundBlur_216_450" />
    </filter>
    <filter id="filter3_f_216_450" x="53.8529" y="50.5424" width="29.8547" height="29.8918"
      filterUnits="userSpaceOnUse" color-interpolation-filters="sRGB">
      <feFlood flood-opacity="0" result="BackgroundImageFix" />
      <feBlend mode="normal" in="SourceGraphic" in2="BackgroundImageFix" result="shape" />
      <feGaussianBlur stdDeviation="4.596" result="effect1_foregroundBlur_216_450" />
    </filter>
    <filter id="filter4_f_216_450" x="55.9857" y="46.6908" width="29.8547" height="29.8918"
      filterUnits="userSpaceOnUse" color-interpolation-filters="sRGB">
      <feFlood flood-opacity="0" result="BackgroundImageFix" />
      <feBlend mode="normal" in="SourceGraphic" in2="BackgroundImageFix" result="shape" />
      <feGaussianBlur stdDeviation="4.596" result="effect1_foregroundBlur_216_450" />
    </filter>
    <filter id="filter5_f_216_450" x="55.56" y="25.3549" width="29.8547" height="29.8918"
      filterUnits="userSpaceOnUse" color-interpolation-filters="sRGB">
      <feFlood flood-opacity="0" result="BackgroundImageFix" />
      <feBlend mode="normal" in="SourceGraphic" in2="BackgroundImageFix" result="shape" />
      <feGaussianBlur stdDeviation="4.596" result="effect1_foregroundBlur_216_450" />
    </filter>
    <filter id="filter6_f_216_450" x="56.8451" y="23.6478" width="29.8547" height="29.8918"
      filterUnits="userSpaceOnUse" color-interpolation-filters="sRGB">
      <feFlood flood-opacity="0" result="BackgroundImageFix" />
      <feBlend mode="normal" in="SourceGraphic" in2="BackgroundImageFix" result="shape" />
      <feGaussianBlur stdDeviation="4.596" result="effect1_foregroundBlur_216_450" />
    </filter>
    <filter id="filter7_f_216_450" x="35.4975" y="51.3978" width="29.8547" height="29.8918"
      filterUnits="userSpaceOnUse" color-interpolation-filters="sRGB">
      <feFlood flood-opacity="0" result="BackgroundImageFix" />
      <feBlend mode="normal" in="SourceGraphic" in2="BackgroundImageFix" result="shape" />
      <feGaussianBlur stdDeviation="4.596" result="effect1_foregroundBlur_216_450" />
    </filter>
    <filter id="filter8_f_216_450" x="32.5053" y="47.5619" width="29.8547" height="29.8918"
      filterUnits="userSpaceOnUse" color-interpolation-filters="sRGB">
      <feFlood flood-opacity="0" result="BackgroundImageFix" />
      <feBlend mode="normal" in="SourceGraphic" in2="BackgroundImageFix" result="shape" />
      <feGaussianBlur stdDeviation="4.596" result="effect1_foregroundBlur_216_450" />
    </filter>
    <filter id="filter9_f_216_450" x="32.5053" y="25.3549" width="29.8547" height="29.8918"
      filterUnits="userSpaceOnUse" color-interpolation-filters="sRGB">
      <feFlood flood-opacity="0" result="BackgroundImageFix" />
      <feBlend mode="normal" in="SourceGraphic" in2="BackgroundImageFix" result="shape" />
      <feGaussianBlur stdDeviation="4.596" result="effect1_foregroundBlur_216_450" />
    </filter>
    <filter id="filter10_f_216_450" x="32.0775" y="22.8041" width="29.8547" height="29.8918"
      filterUnits="userSpaceOnUse" color-interpolation-filters="sRGB">
      <feFlood flood-opacity="0" result="BackgroundImageFix" />
      <feBlend mode="normal" in="SourceGraphic" in2="BackgroundImageFix" result="shape" />
      <feGaussianBlur stdDeviation="4.596" result="effect1_foregroundBlur_216_450" />
    </filter>
    <filter id="filter11_f_216_450" x="24.3725" y="33.8119" width="38.0598" height="38.1692"
      filterUnits="userSpaceOnUse" color-interpolation-filters="sRGB">
      <feFlood flood-opacity="0" result="BackgroundImageFix" />
      <feBlend mode="normal" in="SourceGraphic" in2="BackgroundImageFix" result="shape" />
      <feGaussianBlur stdDeviation="4.596" result="effect1_foregroundBlur_216_450" />
    </filter>
    <filter id="filter12_f_216_450" x="57.6322" y="30.3861" width="38.0598" height="38.1692"
      filterUnits="userSpaceOnUse" color-interpolation-filters="sRGB">
      <feFlood flood-opacity="0" result="BackgroundImageFix" />
      <feBlend mode="normal" in="SourceGraphic" in2="BackgroundImageFix" result="shape" />
      <feGaussianBlur stdDeviation="4.596" result="effect1_foregroundBlur_216_450" />
    </filter>
    <filter id="filter13_f_216_450" x="26.1107" y="72.3236" width="66.3195" height="28.6809"
      filterUnits="userSpaceOnUse" color-interpolation-filters="sRGB">
      <feFlood flood-opacity="0" result="BackgroundImageFix" />
      <feBlend mode="normal" in="SourceGraphic" in2="BackgroundImageFix" result="shape" />
      <feGaussianBlur stdDeviation="4.596" result="effect1_foregroundBlur_216_450" />
    </filter>
  </defs>
</svg>
  
